<?xml version="1.0" encoding="UTF-8" standalone="no"?>
<!DOCTYPE svg PUBLIC "-//W3C//DTD SVG 1.1//EN"
 "http://www.w3.org/Graphics/SVG/1.1/DTD/svg11.dtd">
<!-- Generated by graphviz version 2.50.0 (0)
 -->
<!-- Pages: 1 -->
<svg width="1589pt" height="210pt"
 viewBox="0.00 0.00 1588.62 210.00" xmlns="http://www.w3.org/2000/svg" xmlns:xlink="http://www.w3.org/1999/xlink">
<g id="graph0" class="graph" transform="scale(1 1) rotate(0) translate(4 206)">
<polygon fill="white" stroke="transparent" points="-4,4 -4,-206 1584.62,-206 1584.62,4 -4,4"/>
<!-- 139745822090256 -->
<g id="node1" class="node">
<title>139745822090256</title>
<polygon fill="none" stroke="black" points="1393.42,-54.5 1393.42,-90.5 1580.62,-90.5 1580.62,-54.5 1393.42,-54.5"/>
<text text-anchor="middle" x="1404.92" y="-68.4" font-family="Times,serif" font-size="14.00">o</text>
<polyline fill="none" stroke="black" points="1416.42,-54.7 1416.42,-90.5 "/>
<text text-anchor="middle" x="1457.08" y="-68.4" font-family="Times,serif" font-size="14.00">data 0.7071</text>
<polyline fill="none" stroke="black" points="1497.74,-54.7 1497.74,-90.5 "/>
<text text-anchor="middle" x="1539.18" y="-68.4" font-family="Times,serif" font-size="14.00">grad 1.0000</text>
</g>
<!-- 139745822090256tanh -->
<g id="node2" class="node">
<title>139745822090256tanh</title>
<ellipse fill="none" stroke="black" cx="1329.76" cy="-72.5" rx="27.83" ry="18"/>
<text text-anchor="middle" x="1329.76" y="-68.3" font-family="Times,serif" font-size="14.00">tanh</text>
</g>
<!-- 139745822090256tanh&#45;&gt;139745822090256 -->
<g id="edge1" class="edge">
<title>139745822090256tanh&#45;&gt;139745822090256</title>
<path fill="none" stroke="black" d="M1357.45,-72.5C1365.03,-72.5 1373.76,-72.5 1383.04,-72.5"/>
<polygon fill="black" stroke="black" points="1383.29,-76 1393.29,-72.5 1383.29,-69 1383.29,-76"/>
</g>
<!-- 139745822095888 -->
<g id="node3" class="node">
<title>139745822095888</title>
<polygon fill="none" stroke="black" points="0,-55.5 0,-91.5 201.97,-91.5 201.97,-55.5 0,-55.5"/>
<text text-anchor="middle" x="16.56" y="-69.4" font-family="Times,serif" font-size="14.00">w1</text>
<polyline fill="none" stroke="black" points="33.11,-55.7 33.11,-91.5 "/>
<text text-anchor="middle" x="76.1" y="-69.4" font-family="Times,serif" font-size="14.00">data &#45;3.0000</text>
<polyline fill="none" stroke="black" points="119.09,-55.7 119.09,-91.5 "/>
<text text-anchor="middle" x="160.53" y="-69.4" font-family="Times,serif" font-size="14.00">grad 1.0000</text>
</g>
<!-- 139745822090128* -->
<g id="node11" class="node">
<title>139745822090128*</title>
<ellipse fill="none" stroke="black" cx="264.97" cy="-73.5" rx="27" ry="18"/>
<text text-anchor="middle" x="264.97" y="-69.3" font-family="Times,serif" font-size="14.00">*</text>
</g>
<!-- 139745822095888&#45;&gt;139745822090128* -->
<g id="edge13" class="edge">
<title>139745822095888&#45;&gt;139745822090128*</title>
<path fill="none" stroke="black" d="M202.26,-73.5C211.25,-73.5 219.9,-73.5 227.74,-73.5"/>
<polygon fill="black" stroke="black" points="227.88,-77 237.88,-73.5 227.88,-70 227.88,-77"/>
</g>
<!-- 139745822093392 -->
<g id="node4" class="node">
<title>139745822093392</title>
<polygon fill="none" stroke="black" points="676.93,-82.5 676.93,-118.5 952.9,-118.5 952.9,-82.5 676.93,-82.5"/>
<text text-anchor="middle" x="730.49" y="-96.4" font-family="Times,serif" font-size="14.00">x1*w1 + x2*w2</text>
<polyline fill="none" stroke="black" points="784.05,-82.7 784.05,-118.5 "/>
<text text-anchor="middle" x="827.04" y="-96.4" font-family="Times,serif" font-size="14.00">data &#45;6.0000</text>
<polyline fill="none" stroke="black" points="870.03,-82.7 870.03,-118.5 "/>
<text text-anchor="middle" x="911.47" y="-96.4" font-family="Times,serif" font-size="14.00">grad 0.5000</text>
</g>
<!-- 139745822095248+ -->
<g id="node15" class="node">
<title>139745822095248+</title>
<ellipse fill="none" stroke="black" cx="1015.9" cy="-72.5" rx="27" ry="18"/>
<text text-anchor="middle" x="1015.9" y="-68.3" font-family="Times,serif" font-size="14.00">+</text>
</g>
<!-- 139745822093392&#45;&gt;139745822095248+ -->
<g id="edge10" class="edge">
<title>139745822093392&#45;&gt;139745822095248+</title>
<path fill="none" stroke="black" d="M943.91,-82.49C956.56,-80.71 968.54,-79.02 978.94,-77.56"/>
<polygon fill="black" stroke="black" points="979.74,-80.98 989.15,-76.12 978.76,-74.05 979.74,-80.98"/>
</g>
<!-- 139745822093392+ -->
<g id="node5" class="node">
<title>139745822093392+</title>
<ellipse fill="none" stroke="black" cx="613.93" cy="-100.5" rx="27" ry="18"/>
<text text-anchor="middle" x="613.93" y="-96.3" font-family="Times,serif" font-size="14.00">+</text>
</g>
<!-- 139745822093392+&#45;&gt;139745822093392 -->
<g id="edge2" class="edge">
<title>139745822093392+&#45;&gt;139745822093392</title>
<path fill="none" stroke="black" d="M640.95,-100.5C648.37,-100.5 657.04,-100.5 666.45,-100.5"/>
<polygon fill="black" stroke="black" points="666.52,-104 676.52,-100.5 666.52,-97 666.52,-104"/>
</g>
<!-- 139745822094928 -->
<g id="node6" class="node">
<title>139745822094928</title>
<polygon fill="none" stroke="black" points="330.3,-110.5 330.3,-146.5 548.6,-146.5 548.6,-110.5 330.3,-110.5"/>
<text text-anchor="middle" x="357.35" y="-124.4" font-family="Times,serif" font-size="14.00">x2*w2</text>
<polyline fill="none" stroke="black" points="384.41,-110.7 384.41,-146.5 "/>
<text text-anchor="middle" x="425.07" y="-124.4" font-family="Times,serif" font-size="14.00">data 0.0000</text>
<polyline fill="none" stroke="black" points="465.72,-110.7 465.72,-146.5 "/>
<text text-anchor="middle" x="507.16" y="-124.4" font-family="Times,serif" font-size="14.00">grad 0.5000</text>
</g>
<!-- 139745822094928&#45;&gt;139745822093392+ -->
<g id="edge9" class="edge">
<title>139745822094928&#45;&gt;139745822093392+</title>
<path fill="none" stroke="black" d="M548.71,-110.93C558.91,-109.27 568.67,-107.69 577.36,-106.27"/>
<polygon fill="black" stroke="black" points="578.09,-109.7 587.4,-104.64 576.97,-102.79 578.09,-109.7"/>
</g>
<!-- 139745822094928* -->
<g id="node7" class="node">
<title>139745822094928*</title>
<ellipse fill="none" stroke="black" cx="264.97" cy="-128.5" rx="27" ry="18"/>
<text text-anchor="middle" x="264.97" y="-124.3" font-family="Times,serif" font-size="14.00">*</text>
</g>
<!-- 139745822094928*&#45;&gt;139745822094928 -->
<g id="edge3" class="edge">
<title>139745822094928*&#45;&gt;139745822094928</title>
<path fill="none" stroke="black" d="M292.16,-128.5C300.3,-128.5 309.86,-128.5 320.13,-128.5"/>
<polygon fill="black" stroke="black" points="320.17,-132 330.17,-128.5 320.17,-125 320.17,-132"/>
</g>
<!-- 139745822090320 -->
<g id="node8" class="node">
<title>139745822090320</title>
<polygon fill="none" stroke="black" points="3.89,-165.5 3.89,-201.5 198.08,-201.5 198.08,-165.5 3.89,-165.5"/>
<text text-anchor="middle" x="18.89" y="-179.4" font-family="Times,serif" font-size="14.00">x2</text>
<polyline fill="none" stroke="black" points="33.89,-165.7 33.89,-201.5 "/>
<text text-anchor="middle" x="74.54" y="-179.4" font-family="Times,serif" font-size="14.00">data 0.0000</text>
<polyline fill="none" stroke="black" points="115.2,-165.7 115.2,-201.5 "/>
<text text-anchor="middle" x="156.64" y="-179.4" font-family="Times,serif" font-size="14.00">grad 0.5000</text>
</g>
<!-- 139745822090320&#45;&gt;139745822094928* -->
<g id="edge7" class="edge">
<title>139745822090320&#45;&gt;139745822094928*</title>
<path fill="none" stroke="black" d="M174.23,-165.48C183.63,-162.7 193.08,-159.68 201.97,-156.5 212.5,-152.73 223.73,-147.91 233.69,-143.34"/>
<polygon fill="black" stroke="black" points="235.22,-146.49 242.79,-139.08 232.25,-140.15 235.22,-146.49"/>
</g>
<!-- 139745822094480 -->
<g id="node9" class="node">
<title>139745822094480</title>
<polygon fill="none" stroke="black" points="2.33,-110.5 2.33,-146.5 199.63,-146.5 199.63,-110.5 2.33,-110.5"/>
<text text-anchor="middle" x="18.89" y="-124.4" font-family="Times,serif" font-size="14.00">w2</text>
<polyline fill="none" stroke="black" points="35.44,-110.7 35.44,-146.5 "/>
<text text-anchor="middle" x="76.1" y="-124.4" font-family="Times,serif" font-size="14.00">data 1.0000</text>
<polyline fill="none" stroke="black" points="116.76,-110.7 116.76,-146.5 "/>
<text text-anchor="middle" x="158.2" y="-124.4" font-family="Times,serif" font-size="14.00">grad 0.0000</text>
</g>
<!-- 139745822094480&#45;&gt;139745822094928* -->
<g id="edge14" class="edge">
<title>139745822094480&#45;&gt;139745822094928*</title>
<path fill="none" stroke="black" d="M199.95,-128.5C209.69,-128.5 219.09,-128.5 227.55,-128.5"/>
<polygon fill="black" stroke="black" points="227.72,-132 237.72,-128.5 227.72,-125 227.72,-132"/>
</g>
<!-- 139745822090128 -->
<g id="node10" class="node">
<title>139745822090128</title>
<polygon fill="none" stroke="black" points="327.97,-55.5 327.97,-91.5 550.93,-91.5 550.93,-55.5 327.97,-55.5"/>
<text text-anchor="middle" x="355.02" y="-69.4" font-family="Times,serif" font-size="14.00">x1*w1</text>
<polyline fill="none" stroke="black" points="382.08,-55.7 382.08,-91.5 "/>
<text text-anchor="middle" x="425.07" y="-69.4" font-family="Times,serif" font-size="14.00">data &#45;6.0000</text>
<polyline fill="none" stroke="black" points="468.06,-55.7 468.06,-91.5 "/>
<text text-anchor="middle" x="509.49" y="-69.4" font-family="Times,serif" font-size="14.00">grad 0.5000</text>
</g>
<!-- 139745822090128&#45;&gt;139745822093392+ -->
<g id="edge11" class="edge">
<title>139745822090128&#45;&gt;139745822093392+</title>
<path fill="none" stroke="black" d="M551.15,-90.83C560.55,-92.3 569.52,-93.7 577.57,-94.97"/>
<polygon fill="black" stroke="black" points="577.17,-98.44 587.59,-96.53 578.25,-91.53 577.17,-98.44"/>
</g>
<!-- 139745822090128*&#45;&gt;139745822090128 -->
<g id="edge4" class="edge">
<title>139745822090128*&#45;&gt;139745822090128</title>
<path fill="none" stroke="black" d="M292.16,-73.5C299.72,-73.5 308.49,-73.5 317.92,-73.5"/>
<polygon fill="black" stroke="black" points="317.95,-77 327.95,-73.5 317.95,-70 317.95,-77"/>
</g>
<!-- 139745822090640 -->
<g id="node12" class="node">
<title>139745822090640</title>
<polygon fill="none" stroke="black" points="721.32,-27.5 721.32,-63.5 908.51,-63.5 908.51,-27.5 721.32,-27.5"/>
<text text-anchor="middle" x="732.82" y="-41.4" font-family="Times,serif" font-size="14.00">b</text>
<polyline fill="none" stroke="black" points="744.32,-27.7 744.32,-63.5 "/>
<text text-anchor="middle" x="784.98" y="-41.4" font-family="Times,serif" font-size="14.00">data 6.8814</text>
<polyline fill="none" stroke="black" points="825.64,-27.7 825.64,-63.5 "/>
<text text-anchor="middle" x="867.08" y="-41.4" font-family="Times,serif" font-size="14.00">grad 0.5000</text>
</g>
<!-- 139745822090640&#45;&gt;139745822095248+ -->
<g id="edge12" class="edge">
<title>139745822090640&#45;&gt;139745822095248+</title>
<path fill="none" stroke="black" d="M908.71,-58.09C933.79,-61.49 959.44,-64.97 979.24,-67.66"/>
<polygon fill="black" stroke="black" points="978.94,-71.15 989.32,-69.03 979.88,-64.22 978.94,-71.15"/>
</g>
<!-- 139745822090512 -->
<g id="node13" class="node">
<title>139745822090512</title>
<polygon fill="none" stroke="black" points="1.56,-0.5 1.56,-36.5 200.41,-36.5 200.41,-0.5 1.56,-0.5"/>
<text text-anchor="middle" x="16.56" y="-14.4" font-family="Times,serif" font-size="14.00">x1</text>
<polyline fill="none" stroke="black" points="31.56,-0.7 31.56,-36.5 "/>
<text text-anchor="middle" x="72.21" y="-14.4" font-family="Times,serif" font-size="14.00">data 2.0000</text>
<polyline fill="none" stroke="black" points="112.87,-0.7 112.87,-36.5 "/>
<text text-anchor="middle" x="156.64" y="-14.4" font-family="Times,serif" font-size="14.00">grad &#45;1.5000</text>
</g>
<!-- 139745822090512&#45;&gt;139745822090128* -->
<g id="edge6" class="edge">
<title>139745822090512&#45;&gt;139745822090128*</title>
<path fill="none" stroke="black" d="M174.23,-36.52C183.63,-39.3 193.08,-42.32 201.97,-45.5 212.5,-49.27 223.73,-54.09 233.69,-58.66"/>
<polygon fill="black" stroke="black" points="232.25,-61.85 242.79,-62.92 235.22,-55.51 232.25,-61.85"/>
</g>
<!-- 139745822095248 -->
<g id="node14" class="node">
<title>139745822095248</title>
<polygon fill="none" stroke="black" points="1078.9,-54.5 1078.9,-90.5 1266.1,-90.5 1266.1,-54.5 1078.9,-54.5"/>
<text text-anchor="middle" x="1090.4" y="-68.4" font-family="Times,serif" font-size="14.00">n</text>
<polyline fill="none" stroke="black" points="1101.9,-54.7 1101.9,-90.5 "/>
<text text-anchor="middle" x="1142.56" y="-68.4" font-family="Times,serif" font-size="14.00">data 0.8814</text>
<polyline fill="none" stroke="black" points="1183.22,-54.7 1183.22,-90.5 "/>
<text text-anchor="middle" x="1224.66" y="-68.4" font-family="Times,serif" font-size="14.00">grad 0.5000</text>
</g>
<!-- 139745822095248&#45;&gt;139745822090256tanh -->
<g id="edge8" class="edge">
<title>139745822095248&#45;&gt;139745822090256tanh</title>
<path fill="none" stroke="black" d="M1266.5,-72.5C1275.38,-72.5 1283.98,-72.5 1291.82,-72.5"/>
<polygon fill="black" stroke="black" points="1291.97,-76 1301.97,-72.5 1291.97,-69 1291.97,-76"/>
</g>
<!-- 139745822095248+&#45;&gt;139745822095248 -->
<g id="edge5" class="edge">
<title>139745822095248+&#45;&gt;139745822095248</title>
<path fill="none" stroke="black" d="M1043.13,-72.5C1050.66,-72.5 1059.36,-72.5 1068.6,-72.5"/>
<polygon fill="black" stroke="black" points="1068.83,-76 1078.83,-72.5 1068.83,-69 1068.83,-76"/>
</g>
</g>
</svg>
