<?xml version="1.0" encoding="UTF-8" standalone="no"?>
<!DOCTYPE svg PUBLIC "-//W3C//DTD SVG 1.1//EN"
 "http://www.w3.org/Graphics/SVG/1.1/DTD/svg11.dtd">
<!-- Generated by graphviz version 2.50.0 (0)
 -->
<!-- Pages: 1 -->
<svg width="1166pt" height="128pt"
 viewBox="0.00 0.00 1165.85 128.00" xmlns="http://www.w3.org/2000/svg" xmlns:xlink="http://www.w3.org/1999/xlink">
<g id="graph0" class="graph" transform="scale(1 1) rotate(0) translate(4 124)">
<polygon fill="white" stroke="transparent" points="-4,4 -4,-124 1161.85,-124 1161.85,4 -4,4"/>
<!-- 139745830334608 -->
<g id="node1" class="node">
<title>139745830334608</title>
<polygon fill="none" stroke="black" points="964.44,-54.5 964.44,-90.5 1157.85,-90.5 1157.85,-54.5 964.44,-54.5"/>
<text text-anchor="middle" x="976.72" y="-68.4" font-family="Times,serif" font-size="14.00">L</text>
<polyline fill="none" stroke="black" points="988.99,-54.7 988.99,-90.5 "/>
<text text-anchor="middle" x="1031.98" y="-68.4" font-family="Times,serif" font-size="14.00">data &#45;8.0000</text>
<polyline fill="none" stroke="black" points="1074.97,-54.7 1074.97,-90.5 "/>
<text text-anchor="middle" x="1116.41" y="-68.4" font-family="Times,serif" font-size="14.00">grad 1.0000</text>
</g>
<!-- 139745830334608* -->
<g id="node2" class="node">
<title>139745830334608*</title>
<ellipse fill="none" stroke="black" cx="901.44" cy="-72.5" rx="27" ry="18"/>
<text text-anchor="middle" x="901.44" y="-68.3" font-family="Times,serif" font-size="14.00">*</text>
</g>
<!-- 139745830334608*&#45;&gt;139745830334608 -->
<g id="edge1" class="edge">
<title>139745830334608*&#45;&gt;139745830334608</title>
<path fill="none" stroke="black" d="M928.48,-72.5C936,-72.5 944.7,-72.5 953.98,-72.5"/>
<polygon fill="black" stroke="black" points="954.24,-76 964.24,-72.5 954.24,-69 954.24,-76"/>
</g>
<!-- 139745821846672 -->
<g id="node3" class="node">
<title>139745821846672</title>
<polygon fill="none" stroke="black" points="5.06,-83.5 5.06,-119.5 191.46,-119.5 191.46,-83.5 5.06,-83.5"/>
<text text-anchor="middle" x="16.16" y="-97.4" font-family="Times,serif" font-size="14.00">a</text>
<polyline fill="none" stroke="black" points="27.27,-83.7 27.27,-119.5 "/>
<text text-anchor="middle" x="67.93" y="-97.4" font-family="Times,serif" font-size="14.00">data 2.0000</text>
<polyline fill="none" stroke="black" points="108.59,-83.7 108.59,-119.5 "/>
<text text-anchor="middle" x="150.02" y="-97.4" font-family="Times,serif" font-size="14.00">grad 6.0000</text>
</g>
<!-- 139745830330640* -->
<g id="node6" class="node">
<title>139745830330640*</title>
<ellipse fill="none" stroke="black" cx="259.52" cy="-73.5" rx="27" ry="18"/>
<text text-anchor="middle" x="259.52" y="-69.3" font-family="Times,serif" font-size="14.00">*</text>
</g>
<!-- 139745821846672&#45;&gt;139745830330640* -->
<g id="edge8" class="edge">
<title>139745821846672&#45;&gt;139745830330640*</title>
<path fill="none" stroke="black" d="M191.9,-85.21C202.94,-83.27 213.63,-81.39 223.1,-79.73"/>
<polygon fill="black" stroke="black" points="223.99,-83.12 233.23,-77.95 222.78,-76.23 223.99,-83.12"/>
</g>
<!-- 139745830338192 -->
<g id="node4" class="node">
<title>139745830338192</title>
<polygon fill="none" stroke="black" points="647.76,-82.5 647.76,-118.5 837.27,-118.5 837.27,-82.5 647.76,-82.5"/>
<text text-anchor="middle" x="658.09" y="-96.4" font-family="Times,serif" font-size="14.00">f</text>
<polyline fill="none" stroke="black" points="668.42,-82.7 668.42,-118.5 "/>
<text text-anchor="middle" x="711.41" y="-96.4" font-family="Times,serif" font-size="14.00">data &#45;2.0000</text>
<polyline fill="none" stroke="black" points="754.4,-82.7 754.4,-118.5 "/>
<text text-anchor="middle" x="795.84" y="-96.4" font-family="Times,serif" font-size="14.00">grad 4.0000</text>
</g>
<!-- 139745830338192&#45;&gt;139745830334608* -->
<g id="edge7" class="edge">
<title>139745830338192&#45;&gt;139745830334608*</title>
<path fill="none" stroke="black" d="M837.52,-83.73C847.25,-81.99 856.65,-80.31 865.08,-78.81"/>
<polygon fill="black" stroke="black" points="865.97,-82.21 875.2,-77 864.74,-75.31 865.97,-82.21"/>
</g>
<!-- 139745830330640 -->
<g id="node5" class="node">
<title>139745830330640</title>
<polygon fill="none" stroke="black" points="323.69,-55.5 323.69,-91.5 519.42,-91.5 519.42,-55.5 323.69,-55.5"/>
<text text-anchor="middle" x="334.79" y="-69.4" font-family="Times,serif" font-size="14.00">e</text>
<polyline fill="none" stroke="black" points="345.9,-55.7 345.9,-91.5 "/>
<text text-anchor="middle" x="388.89" y="-69.4" font-family="Times,serif" font-size="14.00">data &#45;6.0000</text>
<polyline fill="none" stroke="black" points="431.88,-55.7 431.88,-91.5 "/>
<text text-anchor="middle" x="475.65" y="-69.4" font-family="Times,serif" font-size="14.00">grad &#45;2.0000</text>
</g>
<!-- 139745830329680+ -->
<g id="node9" class="node">
<title>139745830329680+</title>
<ellipse fill="none" stroke="black" cx="583.59" cy="-45.5" rx="27" ry="18"/>
<text text-anchor="middle" x="583.59" y="-41.3" font-family="Times,serif" font-size="14.00">+</text>
</g>
<!-- 139745830330640&#45;&gt;139745830329680+ -->
<g id="edge9" class="edge">
<title>139745830330640&#45;&gt;139745830329680+</title>
<path fill="none" stroke="black" d="M519.8,-56.49C529.46,-54.8 538.77,-53.17 547.13,-51.7"/>
<polygon fill="black" stroke="black" points="547.92,-55.12 557.17,-49.95 546.71,-48.22 547.92,-55.12"/>
</g>
<!-- 139745830330640*&#45;&gt;139745830330640 -->
<g id="edge2" class="edge">
<title>139745830330640*&#45;&gt;139745830330640</title>
<path fill="none" stroke="black" d="M286.59,-73.5C294.49,-73.5 303.71,-73.5 313.55,-73.5"/>
<polygon fill="black" stroke="black" points="313.56,-77 323.56,-73.5 313.56,-70 313.56,-77"/>
</g>
<!-- 139745836983056 -->
<g id="node7" class="node">
<title>139745836983056</title>
<polygon fill="none" stroke="black" points="322.52,-0.5 322.52,-36.5 520.59,-36.5 520.59,-0.5 322.52,-0.5"/>
<text text-anchor="middle" x="333.62" y="-14.4" font-family="Times,serif" font-size="14.00">c</text>
<polyline fill="none" stroke="black" points="344.73,-0.7 344.73,-36.5 "/>
<text text-anchor="middle" x="388.89" y="-14.4" font-family="Times,serif" font-size="14.00">data 10.0000</text>
<polyline fill="none" stroke="black" points="433.05,-0.7 433.05,-36.5 "/>
<text text-anchor="middle" x="476.82" y="-14.4" font-family="Times,serif" font-size="14.00">grad &#45;2.0000</text>
</g>
<!-- 139745836983056&#45;&gt;139745830329680+ -->
<g id="edge5" class="edge">
<title>139745836983056&#45;&gt;139745830329680+</title>
<path fill="none" stroke="black" d="M520.71,-35.06C530.07,-36.64 539.08,-38.16 547.19,-39.53"/>
<polygon fill="black" stroke="black" points="546.84,-43.02 557.28,-41.23 548.01,-36.12 546.84,-43.02"/>
</g>
<!-- 139745830329680 -->
<g id="node8" class="node">
<title>139745830329680</title>
<polygon fill="none" stroke="black" points="646.59,-27.5 646.59,-63.5 838.44,-63.5 838.44,-27.5 646.59,-27.5"/>
<text text-anchor="middle" x="658.09" y="-41.4" font-family="Times,serif" font-size="14.00">d</text>
<polyline fill="none" stroke="black" points="669.59,-27.7 669.59,-63.5 "/>
<text text-anchor="middle" x="710.25" y="-41.4" font-family="Times,serif" font-size="14.00">data 4.0000</text>
<polyline fill="none" stroke="black" points="750.9,-27.7 750.9,-63.5 "/>
<text text-anchor="middle" x="794.67" y="-41.4" font-family="Times,serif" font-size="14.00">grad &#45;2.0000</text>
</g>
<!-- 139745830329680&#45;&gt;139745830334608* -->
<g id="edge6" class="edge">
<title>139745830329680&#45;&gt;139745830334608*</title>
<path fill="none" stroke="black" d="M838.87,-61.91C848.15,-63.5 857.1,-65.04 865.17,-66.43"/>
<polygon fill="black" stroke="black" points="864.77,-69.91 875.22,-68.16 865.96,-63.02 864.77,-69.91"/>
</g>
<!-- 139745830329680+&#45;&gt;139745830329680 -->
<g id="edge3" class="edge">
<title>139745830329680+&#45;&gt;139745830329680</title>
<path fill="none" stroke="black" d="M610.85,-45.5C618.35,-45.5 627.01,-45.5 636.23,-45.5"/>
<polygon fill="black" stroke="black" points="636.43,-49 646.43,-45.5 636.43,-42 636.43,-49"/>
</g>
<!-- 139745830343568 -->
<g id="node10" class="node">
<title>139745830343568</title>
<polygon fill="none" stroke="black" points="0,-28.5 0,-64.5 196.52,-64.5 196.52,-28.5 0,-28.5"/>
<text text-anchor="middle" x="11.5" y="-42.4" font-family="Times,serif" font-size="14.00">b</text>
<polyline fill="none" stroke="black" points="23,-28.7 23,-64.5 "/>
<text text-anchor="middle" x="65.99" y="-42.4" font-family="Times,serif" font-size="14.00">data &#45;3.0000</text>
<polyline fill="none" stroke="black" points="108.98,-28.7 108.98,-64.5 "/>
<text text-anchor="middle" x="152.75" y="-42.4" font-family="Times,serif" font-size="14.00">grad &#45;4.0000</text>
</g>
<!-- 139745830343568&#45;&gt;139745830330640* -->
<g id="edge4" class="edge">
<title>139745830343568&#45;&gt;139745830330640*</title>
<path fill="none" stroke="black" d="M196.94,-63.06C206.17,-64.62 215.05,-66.13 223.06,-67.49"/>
<polygon fill="black" stroke="black" points="222.59,-70.96 233.04,-69.18 223.76,-64.06 222.59,-70.96"/>
</g>
</g>
</svg>
