<?xml version="1.0" encoding="UTF-8" standalone="no"?>
<!DOCTYPE svg PUBLIC "-//W3C//DTD SVG 1.1//EN"
 "http://www.w3.org/Graphics/SVG/1.1/DTD/svg11.dtd">
<!-- Generated by graphviz version 2.50.0 (0)
 -->
<!-- Pages: 1 -->
<svg width="1166pt" height="154pt"
 viewBox="0.00 0.00 1165.85 154.00" xmlns="http://www.w3.org/2000/svg" xmlns:xlink="http://www.w3.org/1999/xlink">
<g id="graph0" class="graph" transform="scale(1 1) rotate(0) translate(4 150)">
<polygon fill="white" stroke="transparent" points="-4,4 -4,-150 1161.85,-150 1161.85,4 -4,4"/>
<!-- 139745821948496 -->
<g id="node1" class="node">
<title>139745821948496</title>
<polygon fill="none" stroke="black" points="647.76,-109.5 647.76,-145.5 837.27,-145.5 837.27,-109.5 647.76,-109.5"/>
<text text-anchor="middle" x="658.09" y="-123.4" font-family="Times,serif" font-size="14.00">f</text>
<polyline fill="none" stroke="black" points="668.42,-109.7 668.42,-145.5 "/>
<text text-anchor="middle" x="711.41" y="-123.4" font-family="Times,serif" font-size="14.00">data &#45;2.0000</text>
<polyline fill="none" stroke="black" points="754.4,-109.7 754.4,-145.5 "/>
<text text-anchor="middle" x="795.84" y="-123.4" font-family="Times,serif" font-size="14.00">grad 4.0000</text>
</g>
<!-- 139745821941968* -->
<g id="node3" class="node">
<title>139745821941968*</title>
<ellipse fill="none" stroke="black" cx="901.44" cy="-99.5" rx="27" ry="18"/>
<text text-anchor="middle" x="901.44" y="-95.3" font-family="Times,serif" font-size="14.00">*</text>
</g>
<!-- 139745821948496&#45;&gt;139745821941968* -->
<g id="edge7" class="edge">
<title>139745821948496&#45;&gt;139745821941968*</title>
<path fill="none" stroke="black" d="M837.52,-110.73C847.25,-108.99 856.65,-107.31 865.08,-105.81"/>
<polygon fill="black" stroke="black" points="865.97,-109.21 875.2,-104 864.74,-102.31 865.97,-109.21"/>
</g>
<!-- 139745821941968 -->
<g id="node2" class="node">
<title>139745821941968</title>
<polygon fill="none" stroke="black" points="964.44,-81.5 964.44,-117.5 1157.85,-117.5 1157.85,-81.5 964.44,-81.5"/>
<text text-anchor="middle" x="976.72" y="-95.4" font-family="Times,serif" font-size="14.00">L</text>
<polyline fill="none" stroke="black" points="988.99,-81.7 988.99,-117.5 "/>
<text text-anchor="middle" x="1031.98" y="-95.4" font-family="Times,serif" font-size="14.00">data &#45;8.0000</text>
<polyline fill="none" stroke="black" points="1074.97,-81.7 1074.97,-117.5 "/>
<text text-anchor="middle" x="1116.41" y="-95.4" font-family="Times,serif" font-size="14.00">grad 1.0000</text>
</g>
<!-- 139745821941968*&#45;&gt;139745821941968 -->
<g id="edge1" class="edge">
<title>139745821941968*&#45;&gt;139745821941968</title>
<path fill="none" stroke="black" d="M928.48,-99.5C936,-99.5 944.7,-99.5 953.98,-99.5"/>
<polygon fill="black" stroke="black" points="954.24,-103 964.24,-99.5 954.24,-96 954.24,-103"/>
</g>
<!-- 139745821909776 -->
<g id="node4" class="node">
<title>139745821909776</title>
<polygon fill="none" stroke="black" points="5.06,-55.5 5.06,-91.5 191.46,-91.5 191.46,-55.5 5.06,-55.5"/>
<text text-anchor="middle" x="16.16" y="-69.4" font-family="Times,serif" font-size="14.00">a</text>
<polyline fill="none" stroke="black" points="27.27,-55.7 27.27,-91.5 "/>
<text text-anchor="middle" x="67.93" y="-69.4" font-family="Times,serif" font-size="14.00">data 2.0000</text>
<polyline fill="none" stroke="black" points="108.59,-55.7 108.59,-91.5 "/>
<text text-anchor="middle" x="150.02" y="-69.4" font-family="Times,serif" font-size="14.00">grad 6.0000</text>
</g>
<!-- 139745821948240* -->
<g id="node9" class="node">
<title>139745821948240*</title>
<ellipse fill="none" stroke="black" cx="259.52" cy="-45.5" rx="27" ry="18"/>
<text text-anchor="middle" x="259.52" y="-41.3" font-family="Times,serif" font-size="14.00">*</text>
</g>
<!-- 139745821909776&#45;&gt;139745821948240* -->
<g id="edge4" class="edge">
<title>139745821909776&#45;&gt;139745821948240*</title>
<path fill="none" stroke="black" d="M191.9,-57.21C202.94,-55.27 213.63,-53.39 223.1,-51.73"/>
<polygon fill="black" stroke="black" points="223.99,-55.12 233.23,-49.95 222.78,-48.23 223.99,-55.12"/>
</g>
<!-- 139745821939984 -->
<g id="node5" class="node">
<title>139745821939984</title>
<polygon fill="none" stroke="black" points="322.52,-82.5 322.52,-118.5 520.59,-118.5 520.59,-82.5 322.52,-82.5"/>
<text text-anchor="middle" x="333.62" y="-96.4" font-family="Times,serif" font-size="14.00">c</text>
<polyline fill="none" stroke="black" points="344.73,-82.7 344.73,-118.5 "/>
<text text-anchor="middle" x="388.89" y="-96.4" font-family="Times,serif" font-size="14.00">data 10.0000</text>
<polyline fill="none" stroke="black" points="433.05,-82.7 433.05,-118.5 "/>
<text text-anchor="middle" x="476.82" y="-96.4" font-family="Times,serif" font-size="14.00">grad &#45;2.0000</text>
</g>
<!-- 139745821934928+ -->
<g id="node7" class="node">
<title>139745821934928+</title>
<ellipse fill="none" stroke="black" cx="583.59" cy="-72.5" rx="27" ry="18"/>
<text text-anchor="middle" x="583.59" y="-68.3" font-family="Times,serif" font-size="14.00">+</text>
</g>
<!-- 139745821939984&#45;&gt;139745821934928+ -->
<g id="edge5" class="edge">
<title>139745821939984&#45;&gt;139745821934928+</title>
<path fill="none" stroke="black" d="M520.71,-83.33C530.07,-81.69 539.08,-80.11 547.19,-78.69"/>
<polygon fill="black" stroke="black" points="548.04,-82.1 557.28,-76.93 546.83,-75.2 548.04,-82.1"/>
</g>
<!-- 139745821934928 -->
<g id="node6" class="node">
<title>139745821934928</title>
<polygon fill="none" stroke="black" points="646.59,-54.5 646.59,-90.5 838.44,-90.5 838.44,-54.5 646.59,-54.5"/>
<text text-anchor="middle" x="658.09" y="-68.4" font-family="Times,serif" font-size="14.00">d</text>
<polyline fill="none" stroke="black" points="669.59,-54.7 669.59,-90.5 "/>
<text text-anchor="middle" x="710.25" y="-68.4" font-family="Times,serif" font-size="14.00">data 4.0000</text>
<polyline fill="none" stroke="black" points="750.9,-54.7 750.9,-90.5 "/>
<text text-anchor="middle" x="794.67" y="-68.4" font-family="Times,serif" font-size="14.00">grad &#45;2.0000</text>
</g>
<!-- 139745821934928&#45;&gt;139745821941968* -->
<g id="edge8" class="edge">
<title>139745821934928&#45;&gt;139745821941968*</title>
<path fill="none" stroke="black" d="M838.87,-88.91C848.15,-90.5 857.1,-92.04 865.17,-93.43"/>
<polygon fill="black" stroke="black" points="864.77,-96.91 875.22,-95.16 865.96,-90.02 864.77,-96.91"/>
</g>
<!-- 139745821934928+&#45;&gt;139745821934928 -->
<g id="edge2" class="edge">
<title>139745821934928+&#45;&gt;139745821934928</title>
<path fill="none" stroke="black" d="M610.85,-72.5C618.35,-72.5 627.01,-72.5 636.23,-72.5"/>
<polygon fill="black" stroke="black" points="636.43,-76 646.43,-72.5 636.43,-69 636.43,-76"/>
</g>
<!-- 139745821948240 -->
<g id="node8" class="node">
<title>139745821948240</title>
<polygon fill="none" stroke="black" points="323.69,-27.5 323.69,-63.5 519.42,-63.5 519.42,-27.5 323.69,-27.5"/>
<text text-anchor="middle" x="334.79" y="-41.4" font-family="Times,serif" font-size="14.00">e</text>
<polyline fill="none" stroke="black" points="345.9,-27.7 345.9,-63.5 "/>
<text text-anchor="middle" x="388.89" y="-41.4" font-family="Times,serif" font-size="14.00">data &#45;6.0000</text>
<polyline fill="none" stroke="black" points="431.88,-27.7 431.88,-63.5 "/>
<text text-anchor="middle" x="475.65" y="-41.4" font-family="Times,serif" font-size="14.00">grad &#45;2.0000</text>
</g>
<!-- 139745821948240&#45;&gt;139745821934928+ -->
<g id="edge6" class="edge">
<title>139745821948240&#45;&gt;139745821934928+</title>
<path fill="none" stroke="black" d="M519.8,-61.91C529.46,-63.54 538.77,-65.11 547.13,-66.52"/>
<polygon fill="black" stroke="black" points="546.72,-70 557.17,-68.21 547.89,-63.1 546.72,-70"/>
</g>
<!-- 139745821948240*&#45;&gt;139745821948240 -->
<g id="edge3" class="edge">
<title>139745821948240*&#45;&gt;139745821948240</title>
<path fill="none" stroke="black" d="M286.59,-45.5C294.49,-45.5 303.71,-45.5 313.55,-45.5"/>
<polygon fill="black" stroke="black" points="313.56,-49 323.56,-45.5 313.56,-42 313.56,-49"/>
</g>
<!-- 139745835960720 -->
<g id="node10" class="node">
<title>139745835960720</title>
<polygon fill="none" stroke="black" points="0,-0.5 0,-36.5 196.52,-36.5 196.52,-0.5 0,-0.5"/>
<text text-anchor="middle" x="11.5" y="-14.4" font-family="Times,serif" font-size="14.00">b</text>
<polyline fill="none" stroke="black" points="23,-0.7 23,-36.5 "/>
<text text-anchor="middle" x="65.99" y="-14.4" font-family="Times,serif" font-size="14.00">data &#45;3.0000</text>
<polyline fill="none" stroke="black" points="108.98,-0.7 108.98,-36.5 "/>
<text text-anchor="middle" x="152.75" y="-14.4" font-family="Times,serif" font-size="14.00">grad &#45;4.0000</text>
</g>
<!-- 139745835960720&#45;&gt;139745821948240* -->
<g id="edge9" class="edge">
<title>139745835960720&#45;&gt;139745821948240*</title>
<path fill="none" stroke="black" d="M196.94,-35.06C206.17,-36.62 215.05,-38.13 223.06,-39.49"/>
<polygon fill="black" stroke="black" points="222.59,-42.96 233.04,-41.18 223.76,-36.06 222.59,-42.96"/>
</g>
</g>
</svg>
