<?xml version="1.0" encoding="UTF-8" standalone="no"?>
<!DOCTYPE svg PUBLIC "-//W3C//DTD SVG 1.1//EN"
 "http://www.w3.org/Graphics/SVG/1.1/DTD/svg11.dtd">
<!-- Generated by graphviz version 2.50.0 (0)
 -->
<!-- Pages: 1 -->
<svg width="1154pt" height="156pt"
 viewBox="0.00 0.00 1154.19 156.00" xmlns="http://www.w3.org/2000/svg" xmlns:xlink="http://www.w3.org/1999/xlink">
<g id="graph0" class="graph" transform="scale(1 1) rotate(0) translate(4 152)">
<polygon fill="white" stroke="transparent" points="-4,4 -4,-152 1150.19,-152 1150.19,4 -4,4"/>
<!-- 139745821934608 -->
<g id="node1" class="node">
<title>139745821934608</title>
<polygon fill="none" stroke="black" points="952.78,-27.5 952.78,-63.5 1146.19,-63.5 1146.19,-27.5 952.78,-27.5"/>
<text text-anchor="middle" x="965.06" y="-41.4" font-family="Times,serif" font-size="14.00">L</text>
<polyline fill="none" stroke="black" points="977.33,-27.7 977.33,-63.5 "/>
<text text-anchor="middle" x="1020.32" y="-41.4" font-family="Times,serif" font-size="14.00">data &#45;8.0000</text>
<polyline fill="none" stroke="black" points="1063.31,-27.7 1063.31,-63.5 "/>
<text text-anchor="middle" x="1104.75" y="-41.4" font-family="Times,serif" font-size="14.00">grad 0.0000</text>
</g>
<!-- 139745821934608* -->
<g id="node2" class="node">
<title>139745821934608*</title>
<ellipse fill="none" stroke="black" cx="889.78" cy="-45.5" rx="27" ry="18"/>
<text text-anchor="middle" x="889.78" y="-41.3" font-family="Times,serif" font-size="14.00">*</text>
</g>
<!-- 139745821934608*&#45;&gt;139745821934608 -->
<g id="edge1" class="edge">
<title>139745821934608*&#45;&gt;139745821934608</title>
<path fill="none" stroke="black" d="M916.82,-45.5C924.34,-45.5 933.04,-45.5 942.32,-45.5"/>
<polygon fill="black" stroke="black" points="942.58,-49 952.58,-45.5 942.58,-42 942.58,-49"/>
</g>
<!-- 139745821949008 -->
<g id="node3" class="node">
<title>139745821949008</title>
<polygon fill="none" stroke="black" points="638.42,-55.5 638.42,-91.5 825.62,-91.5 825.62,-55.5 638.42,-55.5"/>
<text text-anchor="middle" x="649.92" y="-69.4" font-family="Times,serif" font-size="14.00">d</text>
<polyline fill="none" stroke="black" points="661.42,-55.7 661.42,-91.5 "/>
<text text-anchor="middle" x="702.08" y="-69.4" font-family="Times,serif" font-size="14.00">data 4.0000</text>
<polyline fill="none" stroke="black" points="742.74,-55.7 742.74,-91.5 "/>
<text text-anchor="middle" x="784.18" y="-69.4" font-family="Times,serif" font-size="14.00">grad 0.0000</text>
</g>
<!-- 139745821949008&#45;&gt;139745821934608* -->
<g id="edge7" class="edge">
<title>139745821949008&#45;&gt;139745821934608*</title>
<path fill="none" stroke="black" d="M825.88,-56.81C835.59,-55.06 844.98,-53.37 853.41,-51.86"/>
<polygon fill="black" stroke="black" points="854.3,-55.25 863.52,-50.04 853.06,-48.36 854.3,-55.25"/>
</g>
<!-- 139745821949008+ -->
<g id="node4" class="node">
<title>139745821949008+</title>
<ellipse fill="none" stroke="black" cx="574.26" cy="-73.5" rx="27" ry="18"/>
<text text-anchor="middle" x="574.26" y="-69.3" font-family="Times,serif" font-size="14.00">+</text>
</g>
<!-- 139745821949008+&#45;&gt;139745821949008 -->
<g id="edge2" class="edge">
<title>139745821949008+&#45;&gt;139745821949008</title>
<path fill="none" stroke="black" d="M601.33,-73.5C609.17,-73.5 618.3,-73.5 628.01,-73.5"/>
<polygon fill="black" stroke="black" points="628.31,-77 638.31,-73.5 628.31,-70 628.31,-77"/>
</g>
<!-- 139745821941008 -->
<g id="node5" class="node">
<title>139745821941008</title>
<polygon fill="none" stroke="black" points="319.02,-83.5 319.02,-119.5 510.09,-119.5 510.09,-83.5 319.02,-83.5"/>
<text text-anchor="middle" x="330.13" y="-97.4" font-family="Times,serif" font-size="14.00">e</text>
<polyline fill="none" stroke="black" points="341.24,-83.7 341.24,-119.5 "/>
<text text-anchor="middle" x="384.23" y="-97.4" font-family="Times,serif" font-size="14.00">data &#45;6.0000</text>
<polyline fill="none" stroke="black" points="427.22,-83.7 427.22,-119.5 "/>
<text text-anchor="middle" x="468.66" y="-97.4" font-family="Times,serif" font-size="14.00">grad 0.0000</text>
</g>
<!-- 139745821941008&#45;&gt;139745821949008+ -->
<g id="edge5" class="edge">
<title>139745821941008&#45;&gt;139745821949008+</title>
<path fill="none" stroke="black" d="M510.48,-84.65C520.2,-82.92 529.59,-81.25 538.01,-79.76"/>
<polygon fill="black" stroke="black" points="538.87,-83.16 548.1,-77.97 537.64,-76.27 538.87,-83.16"/>
</g>
<!-- 139745821941008* -->
<g id="node6" class="node">
<title>139745821941008*</title>
<ellipse fill="none" stroke="black" cx="254.86" cy="-101.5" rx="27" ry="18"/>
<text text-anchor="middle" x="254.86" y="-97.3" font-family="Times,serif" font-size="14.00">*</text>
</g>
<!-- 139745821941008*&#45;&gt;139745821941008 -->
<g id="edge3" class="edge">
<title>139745821941008*&#45;&gt;139745821941008</title>
<path fill="none" stroke="black" d="M281.9,-101.5C289.84,-101.5 299.1,-101.5 308.96,-101.5"/>
<polygon fill="black" stroke="black" points="309,-105 319,-101.5 309,-98 309,-105"/>
</g>
<!-- 139745821939472 -->
<g id="node7" class="node">
<title>139745821939472</title>
<polygon fill="none" stroke="black" points="317.86,-28.5 317.86,-64.5 511.26,-64.5 511.26,-28.5 317.86,-28.5"/>
<text text-anchor="middle" x="328.96" y="-42.4" font-family="Times,serif" font-size="14.00">c</text>
<polyline fill="none" stroke="black" points="340.07,-28.7 340.07,-64.5 "/>
<text text-anchor="middle" x="384.23" y="-42.4" font-family="Times,serif" font-size="14.00">data 10.0000</text>
<polyline fill="none" stroke="black" points="428.39,-28.7 428.39,-64.5 "/>
<text text-anchor="middle" x="469.82" y="-42.4" font-family="Times,serif" font-size="14.00">grad 0.0000</text>
</g>
<!-- 139745821939472&#45;&gt;139745821949008+ -->
<g id="edge9" class="edge">
<title>139745821939472&#45;&gt;139745821949008+</title>
<path fill="none" stroke="black" d="M511.39,-62.91C520.71,-64.5 529.71,-66.04 537.82,-67.43"/>
<polygon fill="black" stroke="black" points="537.47,-70.92 547.91,-69.16 538.65,-64.02 537.47,-70.92"/>
</g>
<!-- 139745821936976 -->
<g id="node8" class="node">
<title>139745821936976</title>
<polygon fill="none" stroke="black" points="0,-111.5 0,-147.5 191.86,-147.5 191.86,-111.5 0,-111.5"/>
<text text-anchor="middle" x="11.5" y="-125.4" font-family="Times,serif" font-size="14.00">b</text>
<polyline fill="none" stroke="black" points="23,-111.7 23,-147.5 "/>
<text text-anchor="middle" x="65.99" y="-125.4" font-family="Times,serif" font-size="14.00">data &#45;3.0000</text>
<polyline fill="none" stroke="black" points="108.98,-111.7 108.98,-147.5 "/>
<text text-anchor="middle" x="150.42" y="-125.4" font-family="Times,serif" font-size="14.00">grad 0.0000</text>
</g>
<!-- 139745821936976&#45;&gt;139745821941008* -->
<g id="edge6" class="edge">
<title>139745821936976&#45;&gt;139745821941008*</title>
<path fill="none" stroke="black" d="M192.28,-112.49C201.57,-110.83 210.52,-109.23 218.58,-107.79"/>
<polygon fill="black" stroke="black" points="219.4,-111.2 228.63,-106 218.17,-104.31 219.4,-111.2"/>
</g>
<!-- 139745821942608 -->
<g id="node9" class="node">
<title>139745821942608</title>
<polygon fill="none" stroke="black" points="637.26,-0.5 637.26,-36.5 826.78,-36.5 826.78,-0.5 637.26,-0.5"/>
<text text-anchor="middle" x="647.59" y="-14.4" font-family="Times,serif" font-size="14.00">f</text>
<polyline fill="none" stroke="black" points="657.92,-0.7 657.92,-36.5 "/>
<text text-anchor="middle" x="700.91" y="-14.4" font-family="Times,serif" font-size="14.00">data &#45;2.0000</text>
<polyline fill="none" stroke="black" points="743.9,-0.7 743.9,-36.5 "/>
<text text-anchor="middle" x="785.34" y="-14.4" font-family="Times,serif" font-size="14.00">grad 0.0000</text>
</g>
<!-- 139745821942608&#45;&gt;139745821934608* -->
<g id="edge4" class="edge">
<title>139745821942608&#45;&gt;139745821934608*</title>
<path fill="none" stroke="black" d="M827.22,-34.83C836.49,-36.44 845.43,-37.99 853.49,-39.38"/>
<polygon fill="black" stroke="black" points="853.09,-42.86 863.54,-41.12 854.28,-35.97 853.09,-42.86"/>
</g>
<!-- 139745821941712 -->
<g id="node10" class="node">
<title>139745821941712</title>
<polygon fill="none" stroke="black" points="2.72,-56.5 2.72,-92.5 189.13,-92.5 189.13,-56.5 2.72,-56.5"/>
<text text-anchor="middle" x="13.83" y="-70.4" font-family="Times,serif" font-size="14.00">a</text>
<polyline fill="none" stroke="black" points="24.94,-56.7 24.94,-92.5 "/>
<text text-anchor="middle" x="65.6" y="-70.4" font-family="Times,serif" font-size="14.00">data 2.0000</text>
<polyline fill="none" stroke="black" points="106.26,-56.7 106.26,-92.5 "/>
<text text-anchor="middle" x="147.69" y="-70.4" font-family="Times,serif" font-size="14.00">grad 0.0000</text>
</g>
<!-- 139745821941712&#45;&gt;139745821941008* -->
<g id="edge8" class="edge">
<title>139745821941712&#45;&gt;139745821941008*</title>
<path fill="none" stroke="black" d="M189.57,-90.44C199.88,-92.21 209.84,-93.93 218.73,-95.46"/>
<polygon fill="black" stroke="black" points="218.17,-98.91 228.62,-97.16 219.35,-92.01 218.17,-98.91"/>
</g>
</g>
</svg>
